<svg id="Layer_1" data-name="Layer 1" xmlns="http://www.w3.org/2000/svg" viewBox="0 0 1109 733"><defs><style>.cls-1{fill:#2f285a;}.cls-2{fill:#56e07b;}.cls-3{fill:#de2b5f;fill-rule:evenodd;}.cls-4{fill:#212933;}</style></defs><g id="GREEN_NAVI" data-name="GREEN NAVI"><path class="cls-1" d="M237.62,91.56c25.88,0,41.43,14,41.43,35.2S263.52,162,237.62,162h-6.07v29.59a2.29,2.29,0,0,1-2.37,2.08H202.7a2.24,2.24,0,0,1-2.08-2.08V93.8a2.25,2.25,0,0,1,2.08-2.21h34.92Zm1.32,43.94a8.72,8.72,0,0,0,0-17.43h-7.69v17.46h7.69Z"/><path class="cls-1" d="M349.28,167a2,2,0,0,1,1.92,2.08l-2.08,22.49a2.51,2.51,0,0,1-2.37,2.07h-53.4a2.25,2.25,0,0,1-2.22-2.07V93.8a2.27,2.27,0,0,1,2.22-2.21h26.18a2.27,2.27,0,0,1,2.21,2.21V167h27.54Z"/><path class="cls-1" d="M465.7,191.72a1.33,1.33,0,0,1-1.34,1.91H435.07a3.48,3.48,0,0,1-3.12-1.91l-4.43-15.53H399.71l-4.43,15.53a3.48,3.48,0,0,1-3.12,1.91H362.87a1.33,1.33,0,0,1-1.34-1.91L395,93.5a4.5,4.5,0,0,1,3.56-1.91h30.17a4.49,4.49,0,0,1,3.55,1.91Zm-52.06-64.8-8,28.12h16Z"/><path class="cls-1" d="M546,91.56c1.34,0,2.37,1,1.63,2.38L515,152.8v38.75a2.26,2.26,0,0,1-2.21,2.08h-26a2.26,2.26,0,0,1-2.21-2.08V152.8L451.84,93.94c-.74-1.34.3-2.38,1.63-2.38h30.77a3.83,3.83,0,0,1,3.39,2.38l12.14,26.62L511.9,93.94a3.87,3.87,0,0,1,3.41-2.38Z"/><path class="cls-1" d="M628.71,91.56a2.15,2.15,0,0,1,2.21,2.08V116a2.08,2.08,0,0,1-2.21,2.21H591.13v13.47h29.73a1.76,1.76,0,0,1,1.92,1.92l-2.08,20.71a2.57,2.57,0,0,1-2.51,1.91H591.11v35.36a2.26,2.26,0,0,1-2.22,2.08H562.71a2.25,2.25,0,0,1-2.07-2.21V93.64a2.11,2.11,0,0,1,2.07-2.08Z"/><path class="cls-1" d="M671.31,91.56a2.17,2.17,0,0,1,2.21,2.22v97.77a2.16,2.16,0,0,1-2.21,2.08H645.13a2.24,2.24,0,0,1-2.08-2.08V93.8a2.25,2.25,0,0,1,2.08-2.21h26.18Z"/><path class="cls-1" d="M772,91.56a2.17,2.17,0,0,1,2.21,2.22v97.77a2.16,2.16,0,0,1-2.21,2.08H746.46a4.06,4.06,0,0,1-3.12-1.91l-25.74-46v45.85a2.16,2.16,0,0,1-2.21,2.08H689.21a2.13,2.13,0,0,1-2.08-2.08V93.8a2.14,2.14,0,0,1,2.08-2.21h25.58a3.92,3.92,0,0,1,3.41,1.91l25.58,46V93.8a2.25,2.25,0,0,1,2.08-2.21H772Z"/><path class="cls-1" d="M824.26,91.56c31.37,0,52.22,20.28,52.22,51.05,0,30.47-20.85,51-52.22,51H789.94a2.25,2.25,0,0,1-2.08-2.21V93.8a2.25,2.25,0,0,1,2.08-2.21h34.32ZM826,167c11.39,0,19.07-9.76,19.07-24.4S837.43,118.2,826,118.2h-7.68V167Z"/><path class="cls-1" d="M958.57,167a2.15,2.15,0,0,1,2.22,1.92v22.62a2.26,2.26,0,0,1-2.22,2.08H889.79c-1,0-2.07-1.18-2.37-2.21V93.64a1.87,1.87,0,0,1,2.07-2.08H956.8a2.29,2.29,0,0,1,2.37,2.08V116a2.21,2.21,0,0,1-2.37,2.21H918.19v11.7h31.37a1.75,1.75,0,0,1,1.91,1.91l-2.08,20.71a2.55,2.55,0,0,1-2.51,1.92H918.19V167h40.38Z"/><path class="cls-1" d="M1056.49,191.28c.74,1.34-.3,2.37-1.64,2.37h-31.64a3.9,3.9,0,0,1-3.42-2.37L1004.41,159h-1.78v32.55a2.3,2.3,0,0,1-2.38,2.07h-26a2.25,2.25,0,0,1-2.21-2.07V93.8a2.27,2.27,0,0,1,2.21-2.21h39c22.79,0,37.88,13.3,37.88,33.42,0,11.69-7.11,23.53-18.2,28.25Zm-45.12-57.39c5,0,8.44-3.12,8.44-7.84s-3.41-7.85-8.44-7.85h-8.72v15.69Z"/><path class="cls-2" d="M81.39,79.11a34.06,34.06,0,0,0-12.45,46.52s0,.07.07.09l19,32.87h0L98.44,176.7h0l19.63,34,9.83-17L83.68,117.1h0A17,17,0,1,1,107,123.32l8.51,14.74A34,34,0,1,0,81.39,79.11Z"/><path class="cls-2" d="M64.35,49.61a68.13,68.13,0,0,0-24.89,93.07h0l59,102,9.83-17L54.2,134.14h0A51.09,51.09,0,1,1,124,152.83l8.51,14.74a68.12,68.12,0,0,0-68.16-118Z"/></g><path class="cls-3" d="M156.14,481.24,89.7,547.69a47.12,47.12,0,0,0,0,66.44h0a47.12,47.12,0,0,0,66.44,0h0a47.12,47.12,0,0,0,0-66.44l33.22-33.22-33.22-33.23Zm33.22,33.23c36.54,36.54,36.54,96.34,0,132.88h0c-36.54,36.54-96.34,36.54-132.88,0h0c-36.55-36.54-36.55-96.34,0-132.88l99.66-99.67,66.44,66.44Z"/><path class="cls-4" d="M307.76,614.58V627.4H280.58v-146h27.09l.09,58.1c7.24-9.13,18.46-15.12,33.38-15.12,26.33,0,48.77,22.15,48.77,52.47s-22.44,52.7-48.77,52.7C326.11,629.51,315,623.51,307.76,614.58Zm55.05-37.77c0-17.48-12.83-29.37-29.1-29.37s-28.89,11.89-28.89,29.37,12.74,29.58,28.89,29.58S362.81,594.42,362.81,576.81Z"/><path class="cls-4" d="M399.6,577c0-30.24,23.76-52.2,55-52.2s55.06,22,55.06,52.2-23.86,52.28-55.06,52.28S399.6,607.34,399.6,577Zm84,0c0-16.84-13-29-29.08-29s-29,12-29,29c0,17.2,12.83,29,29,29S483.63,594,483.63,577Z"/><path class="cls-4" d="M519,577c0-30.24,23.76-52.2,55-52.2s55.06,22,55.06,52.2S605.24,629.3,574,629.3,519,607.34,519,577Zm84,0c0-16.84-13-29-29.08-29s-29,12-29,29c0,17.2,12.83,29,29,29S603,594,603,577Z"/><path class="cls-4" d="M716.09,627.4l-41.93-47.53V627.4H647.07v-146h27.09v87.77l38.13-42.42h32.8l-43.83,47.16,49.26,53.53Z"/><path class="cls-4" d="M793.18,545.64V593c0,9.21,5.05,13.59,12.27,13.59H815.8V627.4H798.7C778.44,627.4,766,616.18,766,596V545.64H750.11V526.71H766V498.86h27.2v27.85h22.91v18.93Z"/><path class="cls-4" d="M930.61,581.3H852.26c1.14,16.54,13,26.42,27.68,26.42,10.35,0,19.66-4.83,24.9-14l21.48,9c-8.07,16.35-24.81,26.51-46.3,26.51-32.41,0-54.37-23.1-54.37-52.18s22.43-52.5,53.42-52.5c29,0,51.35,20.35,51.83,51.34Zm-77.39-16.55h50.67c-2-12.65-11.7-20.15-24.53-20.15C866.24,544.6,856.34,552.2,853.22,564.75Z"/><path class="cls-4" d="M1022.45,674.76V614.58c-7.62,9.4-19.21,14.72-33.1,14.72-26.91,0-49.16-21.67-49.16-52.09s22.34-52.39,49.16-52.39c14.93,0,26.25,6.27,33.1,14.83V526.71h27.09v148Zm2.84-97.55c0-17.5-12.74-29.48-29-29.48s-29,12-29,29.48,12.83,29.55,29,29.55S1025.29,594.8,1025.29,577.21Z"/><path class="cls-4" d="M402.9,364.25a.9.9,0,0,1-1-.94V314.7a.91.91,0,0,1,1-.94h7.9a.89.89,0,0,1,.94.94v3.42A12.08,12.08,0,0,1,421.85,313c8,0,13,5.76,13,14.46v9.64c0,8.57-5,14.6-12.59,14.6-5.22,0-8.84-2.74-10.18-5.22v16.87a.89.89,0,0,1-1,.94Zm21.76-28.79v-6.57c0-4.48-1.88-7-6.16-7-3.68,0-6.43,2.55-6.43,7v6.57c0,4.62,2.75,7.29,6.43,7.29C422.78,342.75,424.66,339.94,424.66,335.46Z"/><path class="cls-4" d="M474.6,328.29v8c0,9-5.09,15.33-16.33,15.33s-16.34-6.36-16.34-15.07v-8c0-9,5.09-15.6,16.34-15.6S474.6,319.59,474.6,328.29Zm-22.49.47v7.3c0,4.15,1.87,6.69,6.16,6.69s6.22-2.54,6.22-6.69v-7.3c0-4.08-1.87-6.9-6.22-6.9S452.11,324.68,452.11,328.76Z"/><path class="cls-4" d="M529,314.9l-8.71,35a1.11,1.11,0,0,1-1.27.94h-9.17a1.05,1.05,0,0,1-1.14-.94l-2.14-9a98.64,98.64,0,0,1-2.62-14.33h-.13c-.54,4.69-1.61,9.38-2.61,14.26l-1.88,9.11a1.08,1.08,0,0,1-1.2.94h-9a1.08,1.08,0,0,1-1.2-1l-8.71-35c-.13-.53-.07-1.07.74-1.07h8.17a1,1,0,0,1,1.2,1l2.88,15.06A118.72,118.72,0,0,1,494,342.75h.13A86.19,86.19,0,0,1,496,329.83l3.69-15.13a1.15,1.15,0,0,1,1.13-.94h7.24a1.05,1.05,0,0,1,1.13,1l3.49,15.13a95,95,0,0,1,1.87,12.85h.13a112.75,112.75,0,0,1,1.88-12.92l3.08-15.06a1.16,1.16,0,0,1,1.14-1h7.36C529,313.76,529.1,314.37,529,314.9Z"/><path class="cls-4" d="M543.16,335.39v1.41c0,3.88,2,6.62,6.76,6.62s5.89-1.74,7.09-3.95c.61-1,.87-1.13,2-.67l5.29,2.68c1.07.54,1.13,1.07.67,2.08-2.28,5.15-8,8.1-15.07,8.1-10.71,0-16.34-6.36-16.34-15.07V328c0-8.43,5.29-15.06,16.27-15.06,10.45,0,15.54,6.63,15.54,14.86v5.9c0,1-.34,1.67-1.74,1.67Zm0-7.83v1.27h12.92v-1.27c0-3.62-2-6.43-6.43-6.43S543.16,323.94,543.16,327.56Z"/><path class="cls-4" d="M595.24,314.43v7.17c0,.87-.33,1.2-1.2,1.2H593c-5.35,0-8.5,2.41-9.57,6.43v20.62a.93.93,0,0,1-.87,1h-8.44a.93.93,0,0,1-.87-1V314.7a.9.9,0,0,1,1-.94h7.63c.8,0,1,.54,1,1.07v5a11.65,11.65,0,0,1,10.78-6.5C595,313.29,595.24,313.5,595.24,314.43Z"/><path class="cls-4" d="M611.51,301.11v6.29a1.31,1.31,0,0,1-1.41,1.41h-7.36a1.31,1.31,0,0,1-1.41-1.41v-6.29a1.31,1.31,0,0,1,1.41-1.41h7.36A1.31,1.31,0,0,1,611.51,301.11Zm0,13.66v35.08a1,1,0,0,1-1,1h-8.1a1,1,0,0,1-1.07-1V314.77a1,1,0,0,1,1.07-1h8.1A1,1,0,0,1,611.51,314.77Z"/><path class="cls-4" d="M630.92,328v21.83a1,1,0,0,1-1,1h-8.1a1,1,0,0,1-1.07-1V314.7a.93.93,0,0,1,1-.94h7.83a.94.94,0,0,1,1,.94v4.22a13.29,13.29,0,0,1,11-6c7,0,10.85,5.22,10.85,13v23.9a.93.93,0,0,1-1,1h-8.1a.92.92,0,0,1-1-1V327.62c0-3.34-1.67-5.42-4.75-5.42S631.93,324.54,630.92,328Z"/><path class="cls-4" d="M693.19,353c0,6.43-4.89,11.92-18.08,11.92-11.79,0-16.2-3.95-16.2-9.85,0-3,1.87-5.95,5.82-7.49a6.9,6.9,0,0,1-2.61-5.09,6,6,0,0,1,3.68-5.56A11.27,11.27,0,0,1,660,326.69c0-7.3,4.55-12.93,14.93-12.93h17a.9.9,0,0,1,.81.94v5.89a1,1,0,0,1-1.07.94h-5.23a9.11,9.11,0,0,1,2.75,6.63c0,6-4.42,11-14,11h-1.94c-1.94,0-2.67.73-2.67,1.8s.8,1.74,2.67,1.74l7.37.07C689.37,342.89,693.19,347,693.19,353Zm-9.65,1c0-1.74-1.07-3.41-4.41-3.41h-6.77c-3.08,0-4.28,1.74-4.28,3.48,0,2.48,2.07,4.22,7.63,4.22S683.54,356.41,683.54,354ZM669,326.69c0,3.34,1.94,5.62,5.89,5.62,3.75,0,5.69-2.14,5.69-5.62,0-3.29-1.94-5.49-5.76-5.49S669,323.27,669,326.69Z"/><rect class="cls-4" x="52" y="327" width="303" height="10" rx="5"/><rect class="cls-4" x="738" y="327" width="303" height="10" rx="5"/></svg>