<?xml version="1.0" standalone="no"?>
<!DOCTYPE svg PUBLIC "-//W3C//DTD SVG 20010904//EN"
 "http://www.w3.org/TR/2001/REC-SVG-20010904/DTD/svg10.dtd">
<svg version="1.0" xmlns="http://www.w3.org/2000/svg"
 width="512.000000pt" height="512.000000pt" viewBox="0 0 512.000000 512.000000"
 preserveAspectRatio="xMidYMid meet">
<metadata>
Created by potrace 1.11, written by Peter Selinger 2001-2013
</metadata>
<g transform="translate(0.000000,512.000000) scale(0.100000,-0.100000)"
fill="#000000" stroke="none">
<path d="M2468 5095 c-2 -1 -37 -6 -78 -10 -551 -53 -1049 -397 -1290 -890
-78 -158 -134 -343 -156 -515 -10 -82 -12 -280 -2 -357 15 -125 19 -147 44
-248 36 -141 68 -220 229 -570 15 -33 54 -116 85 -185 82 -179 116 -250 176
-379 30 -62 54 -115 54 -116 0 -2 23 -52 51 -112 49 -104 76 -161 138 -296 16
-34 55 -116 86 -182 32 -66 70 -147 85 -180 39 -84 90 -193 145 -310 26 -55
60 -127 75 -160 28 -61 119 -252 212 -447 28 -59 54 -105 58 -103 4 3 65 102
135 220 l127 215 -20 43 c-49 102 -161 336 -238 496 -46 95 -84 175 -84 176 0
1 -37 78 -81 171 -45 93 -98 205 -119 249 -21 44 -93 197 -160 340 -140 297
-155 329 -278 595 -248 537 -267 584 -297 735 -19 98 -25 247 -13 361 27 255
157 516 353 708 177 174 395 287 637 330 83 15 326 16 393 2 17 -4 44 -9 60
-12 144 -27 350 -118 475 -210 236 -174 406 -441 469 -734 53 -250 14 -535
-106 -773 -113 -225 -346 -456 -558 -552 -22 -10 -41 -19 -43 -20 -2 -2 24
-61 58 -131 34 -71 75 -159 92 -196 20 -42 38 -68 47 -68 25 0 161 78 261 149
380 268 629 699 677 1171 37 357 -47 711 -246 1035 -258 420 -702 704 -1176
751 -46 5 -273 12 -277 9z"/>
<path d="M2470 4223 c-329 -42 -603 -273 -687 -578 -25 -91 -33 -214 -20 -305
18 -129 30 -160 169 -470 66 -146 124 -274 128 -285 5 -11 26 -58 48 -105 22
-47 105 -229 185 -405 80 -176 159 -349 175 -385 35 -75 58 -128 154 -340 39
-85 92 -202 119 -259 27 -57 49 -105 49 -106 0 -2 17 -39 38 -83 l38 -80 129
215 c72 119 131 221 133 227 1 7 -35 90 -81 186 -46 96 -98 204 -115 240 -28
61 -78 167 -202 425 -60 125 -90 190 -257 545 -301 640 -309 659 -317 760 -6
98 38 211 113 285 87 87 185 126 303 121 227 -9 389 -194 376 -426 -8 -124
-77 -235 -189 -302 l-55 -34 37 -79 c105 -222 132 -275 140 -275 25 0 162 93
226 154 163 154 246 355 245 596 -1 276 -110 471 -347 626 -87 57 -174 96
-261 119 -60 15 -215 26 -274 18z"/>
</g>
</svg>
